<svg width="36" height="36" viewBox="0 0 36 36" fill="none" xmlns="http://www.w3.org/2000/svg">
<rect width="36" height="36" rx="8" fill="white"/>
<path d="M17.998 12.172V22H15.604V16.106L13.406 22H11.474L9.262 16.092V22H6.868V12.172H9.696L12.454 18.976L15.184 12.172H17.998ZM26.7196 23.68L25.4596 21.986C25.0862 22.0607 24.7222 22.098 24.3676 22.098C23.4436 22.098 22.5942 21.8833 21.8196 21.454C21.0542 21.0247 20.4429 20.4273 19.9856 19.662C19.5376 18.8873 19.3136 18.0193 19.3136 17.058C19.3136 16.0967 19.5376 15.2333 19.9856 14.468C20.4429 13.7027 21.0542 13.1053 21.8196 12.676C22.5942 12.2467 23.4436 12.032 24.3676 12.032C25.2916 12.032 26.1362 12.2467 26.9016 12.676C27.6762 13.1053 28.2829 13.7027 28.7216 14.468C29.1696 15.2333 29.3936 16.0967 29.3936 17.058C29.3936 17.898 29.2209 18.668 28.8756 19.368C28.5396 20.0587 28.0682 20.6327 27.4616 21.09L29.6176 23.68H26.7196ZM21.7636 17.058C21.7636 17.926 21.9969 18.6213 22.4636 19.144C22.9396 19.6573 23.5742 19.914 24.3676 19.914C25.1516 19.914 25.7769 19.6527 26.2436 19.13C26.7196 18.6073 26.9576 17.9167 26.9576 17.058C26.9576 16.19 26.7196 15.4993 26.2436 14.986C25.7769 14.4633 25.1516 14.202 24.3676 14.202C23.5742 14.202 22.9396 14.4587 22.4636 14.972C21.9969 15.4853 21.7636 16.1807 21.7636 17.058Z" fill="url(#paint0_linear_13_2)"/>
<defs>
<linearGradient id="paint0_linear_13_2" x1="6" y1="16" x2="30" y2="16" gradientUnits="userSpaceOnUse">
<stop stop-color="#71C2F2"/>
<stop offset="1" stop-color="#6B55F7"/>
</linearGradient>
</defs>
</svg>
